<svg xmlns="http://www.w3.org/2000/svg" viewBox="0 0 2600 2330" width="175mm" height="156.83mm">
  <rect id="canvas-bg" x="0" y="0" width="2600" height="2330" fill="#ffffff"/>
  <style>
    #main-input, #main-input-to-bus, [id^="main-q-"], [id^="main-in-q"] { transform: translate(0px, -40px); }
    #main-omega, #main-argmax { transform: translate(0px, -40px); }
    #main-environment, #main-environment-title, #main-satellite, [id^="main-beam-"], #main-env-in, #main-transition, #main-satellite-beam-guide-left, #main-satellite-beam-guide-right { transform: translate(-210px, -40px); }
    #catfish-input, #catfish-state-to-q, [id^="catfish-q-"], [id^="catfish-input-q"] { transform: translate(0px, -60px); }
  </style>
  <g id="layer-sections">
    <g id="main-agent">
      <rect x="40" y="30" width="2520" height="880" rx="4" fill="#f0f1f2" stroke="none" stroke-width="1.5"/>
      <text x="52" y="96" font-family="Times New Roman, Times, serif" font-size="60" fill="#000000" text-anchor="start">Main training</text>
    </g>
    <g id="main-q-panel">
      <rect x="420" y="95" width="500" height="780" rx="4" fill="#ffffff" stroke="#2f5d80" stroke-width="1.5"/>
    </g>
    <g id="main-q-card-1">
      <rect x="510" y="225" width="320" height="170" rx="4" fill="#ffffff" stroke="#2f5d80" stroke-width="1.5"/>
    </g>
    <g id="main-q-card-2">
      <rect x="510" y="455" width="320" height="170" rx="4" fill="#ffffff" stroke="#2f5d80" stroke-width="1.5"/>
    </g>
    <g id="main-q-card-3">
      <rect x="510" y="685" width="320" height="170" rx="4" fill="#ffffff" stroke="#2f5d80" stroke-width="1.5"/>
    </g>
    <g id="main-environment">
      <rect x="1840" y="330" width="380" height="420" rx="4" fill="#ffffff" stroke="#333941" stroke-width="1.5"/>
    </g>
    <g id="catfish-agent">
      <rect x="40" y="950" width="2520" height="940" rx="4" fill="#f3efe6" stroke="none" stroke-width="1.5"/>
      <text x="52" y="1016" font-family="Times New Roman, Times, serif" font-size="60" fill="#000000" text-anchor="start">Catfish training</text>
    </g>
    <g id="catfish-q-panel">
      <rect x="550" y="1050" width="600" height="800" rx="4" fill="#ffffff" stroke="#8a5740" stroke-width="1.5"/>
    </g>
    <g id="catfish-environment">
      <rect x="1630" y="1272" width="470" height="430" rx="4" fill="#ffffff" stroke="#8a5740" stroke-width="1.5"/>
    </g>
    <g id="training-only">
      <rect x="40" y="1930" width="2520" height="360" rx="4" fill="#ffffff" stroke="#78818a" stroke-width="1.5" stroke-dasharray="9 7"/>
      <text x="52" y="1996" font-family="Times New Roman, Times, serif" font-size="60" fill="#000000" text-anchor="start">Training only</text>
    </g>
    <g id="experience-shaping">
      <rect x="80" y="2010" width="760" height="260" rx="4" fill="#ffffff" stroke="#8a5740" stroke-width="1.5"/>
    </g>
    <g id="reward-shaping">
      <rect x="920" y="2010" width="760" height="260" rx="4" fill="#ffffff" stroke="#8a5740" stroke-width="1.5"/>
    </g>
    <g id="penalty-shaping">
      <rect x="1760" y="2010" width="760" height="260" rx="4" fill="#ffffff" stroke="#8a5740" stroke-width="1.5"/>
    </g>
  </g>
  <g id="layer-lines">
    <g id="main-q-1-link-1">
      <path d="M 598 330 L 670 321" fill="none" stroke="#78818a" stroke-width="1.5"/>
    </g>
    <g id="main-q-1-link-2">
      <path d="M 598 330 L 670 338" fill="none" stroke="#78818a" stroke-width="1.5"/>
    </g>
    <g id="main-q-1-link-3">
      <path d="M 598 347 L 670 321" fill="none" stroke="#78818a" stroke-width="1.5"/>
    </g>
    <g id="main-q-1-link-4">
      <path d="M 598 347 L 670 338" fill="none" stroke="#78818a" stroke-width="1.5"/>
    </g>
    <g id="main-q-1-link-5">
      <path d="M 598 347 L 670 355" fill="none" stroke="#78818a" stroke-width="1.5"/>
    </g>
    <g id="main-q-1-link-6">
      <path d="M 598 347 L 670 372" fill="none" stroke="#78818a" stroke-width="1.5"/>
    </g>
    <g id="main-q-1-link-7">
      <path d="M 598 364 L 670 355" fill="none" stroke="#78818a" stroke-width="1.5"/>
    </g>
    <g id="main-q-1-link-8">
      <path d="M 598 364 L 670 372" fill="none" stroke="#78818a" stroke-width="1.5"/>
    </g>
    <g id="main-q-1-link-9">
      <path d="M 670 321 L 742 330" fill="none" stroke="#78818a" stroke-width="1.5"/>
    </g>
    <g id="main-q-1-link-10">
      <path d="M 670 338 L 742 330" fill="none" stroke="#78818a" stroke-width="1.5"/>
    </g>
    <g id="main-q-1-link-11">
      <path d="M 670 338 L 742 347" fill="none" stroke="#78818a" stroke-width="1.5"/>
    </g>
    <g id="main-q-1-link-12">
      <path d="M 670 338 L 742 364" fill="none" stroke="#78818a" stroke-width="1.5"/>
    </g>
    <g id="main-q-1-link-13">
      <path d="M 670 355 L 742 330" fill="none" stroke="#78818a" stroke-width="1.5"/>
    </g>
    <g id="main-q-1-link-14">
      <path d="M 670 355 L 742 347" fill="none" stroke="#78818a" stroke-width="1.5"/>
    </g>
    <g id="main-q-1-link-15">
      <path d="M 670 355 L 742 364" fill="none" stroke="#78818a" stroke-width="1.5"/>
    </g>
    <g id="main-q-1-link-16">
      <path d="M 670 372 L 742 364" fill="none" stroke="#78818a" stroke-width="1.5"/>
    </g>
    <g id="main-q-2-link-1">
      <path d="M 598 560 L 670 551" fill="none" stroke="#78818a" stroke-width="1.5"/>
    </g>
    <g id="main-q-2-link-2">
      <path d="M 598 560 L 670 568" fill="none" stroke="#78818a" stroke-width="1.5"/>
    </g>
    <g id="main-q-2-link-3">
      <path d="M 598 577 L 670 551" fill="none" stroke="#78818a" stroke-width="1.5"/>
    </g>
    <g id="main-q-2-link-4">
      <path d="M 598 577 L 670 568" fill="none" stroke="#78818a" stroke-width="1.5"/>
    </g>
    <g id="main-q-2-link-5">
      <path d="M 598 577 L 670 585" fill="none" stroke="#78818a" stroke-width="1.5"/>
    </g>
    <g id="main-q-2-link-6">
      <path d="M 598 577 L 670 602" fill="none" stroke="#78818a" stroke-width="1.5"/>
    </g>
    <g id="main-q-2-link-7">
      <path d="M 598 594 L 670 585" fill="none" stroke="#78818a" stroke-width="1.5"/>
    </g>
    <g id="main-q-2-link-8">
      <path d="M 598 594 L 670 602" fill="none" stroke="#78818a" stroke-width="1.5"/>
    </g>
    <g id="main-q-2-link-9">
      <path d="M 670 551 L 742 560" fill="none" stroke="#78818a" stroke-width="1.5"/>
    </g>
    <g id="main-q-2-link-10">
      <path d="M 670 568 L 742 560" fill="none" stroke="#78818a" stroke-width="1.5"/>
    </g>
    <g id="main-q-2-link-11">
      <path d="M 670 568 L 742 577" fill="none" stroke="#78818a" stroke-width="1.5"/>
    </g>
    <g id="main-q-2-link-12">
      <path d="M 670 568 L 742 594" fill="none" stroke="#78818a" stroke-width="1.5"/>
    </g>
    <g id="main-q-2-link-13">
      <path d="M 670 585 L 742 560" fill="none" stroke="#78818a" stroke-width="1.5"/>
    </g>
    <g id="main-q-2-link-14">
      <path d="M 670 585 L 742 577" fill="none" stroke="#78818a" stroke-width="1.5"/>
    </g>
    <g id="main-q-2-link-15">
      <path d="M 670 585 L 742 594" fill="none" stroke="#78818a" stroke-width="1.5"/>
    </g>
    <g id="main-q-2-link-16">
      <path d="M 670 602 L 742 594" fill="none" stroke="#78818a" stroke-width="1.5"/>
    </g>
    <g id="main-q-3-link-1">
      <path d="M 598 790 L 670 781" fill="none" stroke="#78818a" stroke-width="1.5"/>
    </g>
    <g id="main-q-3-link-2">
      <path d="M 598 790 L 670 798" fill="none" stroke="#78818a" stroke-width="1.5"/>
    </g>
    <g id="main-q-3-link-3">
      <path d="M 598 807 L 670 781" fill="none" stroke="#78818a" stroke-width="1.5"/>
    </g>
    <g id="main-q-3-link-4">
      <path d="M 598 807 L 670 798" fill="none" stroke="#78818a" stroke-width="1.5"/>
    </g>
    <g id="main-q-3-link-5">
      <path d="M 598 807 L 670 815" fill="none" stroke="#78818a" stroke-width="1.5"/>
    </g>
    <g id="main-q-3-link-6">
      <path d="M 598 807 L 670 832" fill="none" stroke="#78818a" stroke-width="1.5"/>
    </g>
    <g id="main-q-3-link-7">
      <path d="M 598 824 L 670 815" fill="none" stroke="#78818a" stroke-width="1.5"/>
    </g>
    <g id="main-q-3-link-8">
      <path d="M 598 824 L 670 832" fill="none" stroke="#78818a" stroke-width="1.5"/>
    </g>
    <g id="main-q-3-link-9">
      <path d="M 670 781 L 742 790" fill="none" stroke="#78818a" stroke-width="1.5"/>
    </g>
    <g id="main-q-3-link-10">
      <path d="M 670 798 L 742 790" fill="none" stroke="#78818a" stroke-width="1.5"/>
    </g>
    <g id="main-q-3-link-11">
      <path d="M 670 798 L 742 807" fill="none" stroke="#78818a" stroke-width="1.5"/>
    </g>
    <g id="main-q-3-link-12">
      <path d="M 670 798 L 742 824" fill="none" stroke="#78818a" stroke-width="1.5"/>
    </g>
    <g id="main-q-3-link-13">
      <path d="M 670 815 L 742 790" fill="none" stroke="#78818a" stroke-width="1.5"/>
    </g>
    <g id="main-q-3-link-14">
      <path d="M 670 815 L 742 807" fill="none" stroke="#78818a" stroke-width="1.5"/>
    </g>
    <g id="main-q-3-link-15">
      <path d="M 670 815 L 742 824" fill="none" stroke="#78818a" stroke-width="1.5"/>
    </g>
    <g id="main-q-3-link-16">
      <path d="M 670 832 L 742 824" fill="none" stroke="#78818a" stroke-width="1.5"/>
    </g>
    <g id="main-satellite-beam-guide-left">
      <path d="M 1990 486 L 1940 590" fill="none" stroke="#78818a" stroke-width="1.5"/>
    </g>
    <g id="main-satellite-beam-guide-right">
      <path d="M 2070 486 L 2121 590" fill="none" stroke="#78818a" stroke-width="1.5"/>
    </g>
    <g id="catfish-satellite-beam-guide-left">
      <path d="M 1825 1449 L 1776 1527" fill="none" stroke="#78818a" stroke-width="1.5"/>
    </g>
    <g id="catfish-satellite-beam-guide-right">
      <path d="M 1905 1449 L 1955 1527" fill="none" stroke="#78818a" stroke-width="1.5"/>
    </g>
    <g id="catfish-q-input-trunk">
      <path d="M 565 1262 L 565 1712" fill="none" stroke="#8a5740" stroke-width="1.5"/>
    </g>
    <g id="catfish-q-output-trunk">
      <path d="M 1165 1262 L 1165 1712" fill="none" stroke="#8a5740" stroke-width="1.5"/>
    </g>
    <g id="catfish-input-q1">
      <path d="M 565 1262 L 597 1262" fill="none" stroke="#8a5740" stroke-width="1.5"/>
    </g>
    <g id="catfish-q1-output">
      <path d="M 1103 1202 L 1165 1202" fill="none" stroke="#8a5740" stroke-width="1.5"/>
    </g>
    <g id="catfish-input-q2">
      <path d="M 565 1487 L 692 1487" fill="none" stroke="#8a5740" stroke-width="1.5"/>
    </g>
    <g id="catfish-q2-output">
      <path d="M 1008 1427 L 1165 1427" fill="none" stroke="#8a5740" stroke-width="1.5"/>
    </g>
    <g id="catfish-input-q3">
      <path d="M 565 1712 L 649 1712" fill="none" stroke="#8a5740" stroke-width="1.5"/>
    </g>
    <g id="catfish-q3-output">
      <path d="M 1051 1652 L 1165 1652" fill="none" stroke="#8a5740" stroke-width="1.5"/>
    </g>
    <g id="experience-replay-trunk-rise">
      <path d="M 460 2010 L 460 1905" fill="none" stroke="#333941" stroke-width="1.5"/>
    </g>
    <g id="experience-replay-trunk">
      <path d="M 460 1905 L 265 1905" fill="none" stroke="#333941" stroke-width="1.5"/>
    </g>
    <g id="reward-axis">
      <path d="M 1110 2240 L 1490 2240" fill="none" stroke="#333941" stroke-width="1.5"/>
    </g>
    <g id="reward-main-level">
      <path d="M 1160 2158 L 1450 2158" fill="none" stroke="#2f5d80" stroke-width="1.5" stroke-dasharray="9 7"/>
    </g>
    <g id="reward-catfish-level">
      <path d="M 1300 2104 L 1450 2104" fill="none" stroke="#8a5740" stroke-width="1.5" stroke-dasharray="9 7"/>
    </g>
    <g id="reward-gap-i-stem">
      <path d="M 1454 2104 L 1454 2158" fill="none" stroke="#8a5740" stroke-width="1.5"/>
    </g>
    <g id="reward-gap-i-cap-top">
      <path d="M 1440 2104 L 1468 2104" fill="none" stroke="#8a5740" stroke-width="1.5"/>
    </g>
    <g id="reward-gap-i-cap-bottom">
      <path d="M 1440 2158 L 1468 2158" fill="none" stroke="#8a5740" stroke-width="1.5"/>
    </g>
    <g id="penalty-axis">
      <path d="M 1905 2240 L 2340 2240" fill="none" stroke="#333941" stroke-width="1.5"/>
    </g>
    <g id="penalty-cut">
      <path d="M 2165 2110 L 2165 2265" fill="none" stroke="#8a5740" stroke-width="2.5" stroke-dasharray="9 7"/>
    </g>
  </g>
  <g id="layer-edges">
    <g id="main-input-to-bus">
      <path d="M 262 540 L 480 540" fill="none" stroke="#2f5d80" stroke-width="1.5"/>
    </g>
    <g id="main-in-q1">
      <path d="M 480 539 L 480 310 L 500 310" fill="none" stroke="#2f5d80" stroke-width="1.5"/>
      <polygon points="509,310 500,314.5 500,305.5" fill="#2f5d80"/>
    </g>
    <g id="main-in-q2">
      <path d="M 480 540 L 500 540" fill="none" stroke="#2f5d80" stroke-width="1.5"/>
      <polygon points="509,540 500,544.5 500,535.5" fill="#2f5d80"/>
    </g>
    <g id="main-in-q3">
      <path d="M 480 541 L 480 770 L 500 770" fill="none" stroke="#2f5d80" stroke-width="1.5"/>
      <polygon points="509,770 500,774.5 500,765.5" fill="#2f5d80"/>
    </g>
    <g id="main-q1-out">
      <path d="M 831 270 L 860 270 L 860 500" fill="none" stroke="#2f5d80" stroke-width="1.5"/>
    </g>
    <g id="main-q2-out">
      <path d="M 831 500 L 860 500" fill="none" stroke="#2f5d80" stroke-width="1.5"/>
    </g>
    <g id="main-q3-out">
      <path d="M 831 730 L 860 730 L 860 500" fill="none" stroke="#2f5d80" stroke-width="1.5"/>
    </g>
    <g id="main-bus-omega">
      <path d="M 860 500 L 969 500" fill="none" stroke="#2f5d80" stroke-width="1.5"/>
      <polygon points="978,500 969,504.5 969,495.5" fill="#2f5d80"/>
    </g>
    <g id="main-omega-argmax">
      <path d="M 1102 500 L 1137 500" fill="none" stroke="#2f5d80" stroke-width="1.5"/>
      <polygon points="1146,500 1137,504.5 1137,495.5" fill="#2f5d80"/>
    </g>
    <g id="main-argmax-action">
      <path d="M 1424 500 L 1820 500 L 1820 556" fill="none" stroke="#2f5d80" stroke-width="1.5"/>
      <polygon points="1820,565 1815.5,556 1824.5,556" fill="#2f5d80"/>
    </g>
    <g id="main-rollout-replay">
      <path d="M 1820 711 L 1820 870 L 217 870 L 217 859" fill="none" stroke="#333941" stroke-width="1.5"/>
      <polygon points="217,850 221.5,859 212.5,859" fill="#333941"/>
      <text x="1180" y="850" font-family="Times New Roman, Times, serif" font-size="60" fill="#000000" text-anchor="middle"><tspan font-style="italic">r</tspan></text>
    </g>
    <g id="main-replay-td-update">
      <path d="M 217 850 L 217 905 L 2400 905 L 2400 827" fill="none" stroke="#333941" stroke-width="1.5"/>
      <polygon points="2400,818 2404.5,827 2395.5,827" fill="#333941"/>
    </g>
    <g id="catfish-bus-omega">
      <path d="M 1165 1487 L 1189 1487" fill="none" stroke="#8a5740" stroke-width="1.5"/>
      <polygon points="1198,1487 1189,1491.5 1189,1482.5" fill="#8a5740"/>
    </g>
    <g id="catfish-omega-policy">
      <path d="M 1322 1487 L 1345 1487" fill="none" stroke="#8a5740" stroke-width="1.5"/>
      <polygon points="1354,1487 1345,1491.5 1345,1482.5" fill="#8a5740"/>
    </g>
    <g id="catfish-policy-env">
      <path d="M 1585 1487 L 1865 1487 L 1865 1532" fill="none" stroke="#8a5740" stroke-width="1.5"/>
      <polygon points="1865,1541 1860.5,1532 1869.5,1532" fill="#8a5740"/>
    </g>
    <g id="catfish-r1-loss">
      <path d="M 2306 1184 L 2306 1233" fill="none" stroke="#8a5740" stroke-width="1.5"/>
      <polygon points="2306,1242 2301.5,1233 2310.5,1233" fill="#8a5740"/>
    </g>
    <g id="catfish-state-to-q">
      <path d="M 310 1487 L 683 1487" fill="none" stroke="#8a5740" stroke-width="1.5"/>
      <polygon points="692,1487 683,1491.5 683,1482.5" fill="#8a5740"/>
    </g>
    <g id="catfish-rollout-replay">
      <path d="M 1865 1703 L 1865 1820 L 265 1820 L 265 1806" fill="none" stroke="#333941" stroke-width="1.5"/>
      <polygon points="265,1797 269.5,1806 260.5,1806" fill="#333941"/>
      <text x="1320" y="1800" font-family="Times New Roman, Times, serif" font-size="60" fill="#000000" text-anchor="middle"><tspan font-style="italic">r</tspan></text>
    </g>
    <g id="catfish-replay-td-update">
      <path d="M 265 1763 L 265 1855 L 2306 1855 L 2306 1427" fill="none" stroke="#333941" stroke-width="1.5"/>
      <polygon points="2306,1418 2310.5,1427 2301.5,1427" fill="#333941"/>
    </g>
    <g id="experience-to-main-replay">
      <path d="M 264 1905 L 20 1905 L 20 890 L 217 890 L 217 859" fill="none" stroke="#2f5d80" stroke-width="2.5"/>
      <polygon points="217,850 221.5,859 212.5,859" fill="#2f5d80"/>
    </g>
    <g id="experience-to-catfish-replay">
      <path d="M 265 1904 L 265 1806" fill="none" stroke="#8a5740" stroke-width="2.5"/>
      <polygon points="265,1797 269.5,1806 260.5,1806" fill="#8a5740"/>
    </g>
    <g id="catfish-transition-to-experience">
      <path d="M 1865 1703 L 1865 1905 L 880 1905 L 880 2140 L 850 2140" fill="none" stroke="#8a5740" stroke-width="1.5"/>
      <polygon points="841,2140 850,2135.5 850,2144.5" fill="#8a5740"/>
    </g>
    <g id="reward-to-r1">
      <path d="M 1300 2009 L 1300 1895 L 2520 1895 L 2520 1132 L 2429 1132" fill="none" stroke="#8a5740" stroke-width="2.5"/>
      <polygon points="2420,1132 2429,1127.5 2429,1136.5" fill="#8a5740"/>
    </g>
    <g id="penalty-to-main-loss">
      <path d="M 2140 2009 L 2140 1925 L 2580 1925 L 2580 930 L 2435 930 L 2435 827" fill="none" stroke="#8a5740" stroke-width="2.5"/>
      <polygon points="2435,818 2439.5,827 2430.5,827" fill="#8a5740"/>
    </g>
  </g>
  <g id="layer-nodes">
    <g id="catfish-input">
      <rect x="146" y="1435" width="164" height="104" rx="3" fill="#f3efe6" stroke="#8a5740" stroke-width="2.5"/>
      <text x="228" y="1507.4" font-family="Times New Roman, Times, serif" font-size="60" fill="#000000" text-anchor="middle"><tspan x="228"><tspan font-style="italic">s</tspan><tspan>̃</tspan><tspan font-style="italic" baseline-shift="sub" font-size="42">u</tspan></tspan></text>
    </g>
    <g id="main-input">
      <rect x="98" y="488" width="164" height="104" rx="3" fill="#f3efe6" stroke="#2f5d80" stroke-width="2.5"/>
      <text x="180" y="560.4" font-family="Times New Roman, Times, serif" font-size="60" fill="#000000" text-anchor="middle"><tspan x="180"><tspan font-style="italic">s</tspan><tspan>̃</tspan><tspan font-style="italic" baseline-shift="sub" font-size="42">u</tspan></tspan></text>
    </g>
    <g id="main-q-panel-title">
      <rect x="420" y="79" width="500" height="104" rx="3" fill="none" stroke="none" stroke-width="1.5"/>
      <text x="670" y="151.4" font-family="Times New Roman, Times, serif" font-size="60" fill="#000000" text-anchor="middle"><tspan x="670">Main Q networks</tspan></text>
    </g>
    <g id="main-q-1-in-port">
      <rect x="509" y="309" width="2" height="2" rx="0" fill="none" stroke="none" stroke-width="1.5"/>

    </g>
    <g id="main-q-1-out-port">
      <rect x="829" y="309" width="2" height="2" rx="0" fill="none" stroke="none" stroke-width="1.5"/>

    </g>
    <g id="main-q-1-label">
      <rect x="578" y="205" width="184" height="104" rx="3" fill="none" stroke="none" stroke-width="1.5"/>
      <text x="670" y="277.4" font-family="Times New Roman, Times, serif" font-size="60" fill="#000000" text-anchor="middle"><tspan x="670"><tspan font-style="italic">Q</tspan><tspan baseline-shift="sub" font-size="42">1</tspan></tspan></text>
    </g>
    <g id="main-q-1-n1-1">
      <rect x="591" y="323" width="14" height="14" rx="7" fill="#ffffff" stroke="#333941" stroke-width="1.5"/>

    </g>
    <g id="main-q-1-n1-2">
      <rect x="591" y="340" width="14" height="14" rx="7" fill="#ffffff" stroke="#333941" stroke-width="1.5"/>

    </g>
    <g id="main-q-1-n1-3">
      <rect x="591" y="357" width="14" height="14" rx="7" fill="#ffffff" stroke="#333941" stroke-width="1.5"/>

    </g>
    <g id="main-q-1-n2-1">
      <rect x="663" y="314" width="14" height="14" rx="7" fill="#ffffff" stroke="#333941" stroke-width="1.5"/>

    </g>
    <g id="main-q-1-n2-2">
      <rect x="663" y="331" width="14" height="14" rx="7" fill="#ffffff" stroke="#333941" stroke-width="1.5"/>

    </g>
    <g id="main-q-1-n2-3">
      <rect x="663" y="348" width="14" height="14" rx="7" fill="#ffffff" stroke="#333941" stroke-width="1.5"/>

    </g>
    <g id="main-q-1-n2-4">
      <rect x="663" y="365" width="14" height="14" rx="7" fill="#ffffff" stroke="#333941" stroke-width="1.5"/>

    </g>
    <g id="main-q-1-n3-1">
      <rect x="735" y="323" width="14" height="14" rx="7" fill="#ffffff" stroke="#333941" stroke-width="1.5"/>

    </g>
    <g id="main-q-1-n3-2">
      <rect x="735" y="340" width="14" height="14" rx="7" fill="#ffffff" stroke="#333941" stroke-width="1.5"/>

    </g>
    <g id="main-q-1-n3-3">
      <rect x="735" y="357" width="14" height="14" rx="7" fill="#ffffff" stroke="#333941" stroke-width="1.5"/>

    </g>
    <g id="main-q-2-in-port">
      <rect x="509" y="539" width="2" height="2" rx="0" fill="none" stroke="none" stroke-width="1.5"/>

    </g>
    <g id="main-q-2-out-port">
      <rect x="829" y="539" width="2" height="2" rx="0" fill="none" stroke="none" stroke-width="1.5"/>

    </g>
    <g id="main-q-2-label">
      <rect x="578" y="435" width="184" height="104" rx="3" fill="none" stroke="none" stroke-width="1.5"/>
      <text x="670" y="507.4" font-family="Times New Roman, Times, serif" font-size="60" fill="#000000" text-anchor="middle"><tspan x="670"><tspan font-style="italic">Q</tspan><tspan baseline-shift="sub" font-size="42">2</tspan></tspan></text>
    </g>
    <g id="main-q-2-n1-1">
      <rect x="591" y="553" width="14" height="14" rx="7" fill="#ffffff" stroke="#333941" stroke-width="1.5"/>

    </g>
    <g id="main-q-2-n1-2">
      <rect x="591" y="570" width="14" height="14" rx="7" fill="#ffffff" stroke="#333941" stroke-width="1.5"/>

    </g>
    <g id="main-q-2-n1-3">
      <rect x="591" y="587" width="14" height="14" rx="7" fill="#ffffff" stroke="#333941" stroke-width="1.5"/>

    </g>
    <g id="main-q-2-n2-1">
      <rect x="663" y="544" width="14" height="14" rx="7" fill="#ffffff" stroke="#333941" stroke-width="1.5"/>

    </g>
    <g id="main-q-2-n2-2">
      <rect x="663" y="561" width="14" height="14" rx="7" fill="#ffffff" stroke="#333941" stroke-width="1.5"/>

    </g>
    <g id="main-q-2-n2-3">
      <rect x="663" y="578" width="14" height="14" rx="7" fill="#ffffff" stroke="#333941" stroke-width="1.5"/>

    </g>
    <g id="main-q-2-n2-4">
      <rect x="663" y="595" width="14" height="14" rx="7" fill="#ffffff" stroke="#333941" stroke-width="1.5"/>

    </g>
    <g id="main-q-2-n3-1">
      <rect x="735" y="553" width="14" height="14" rx="7" fill="#ffffff" stroke="#333941" stroke-width="1.5"/>

    </g>
    <g id="main-q-2-n3-2">
      <rect x="735" y="570" width="14" height="14" rx="7" fill="#ffffff" stroke="#333941" stroke-width="1.5"/>

    </g>
    <g id="main-q-2-n3-3">
      <rect x="735" y="587" width="14" height="14" rx="7" fill="#ffffff" stroke="#333941" stroke-width="1.5"/>

    </g>
    <g id="main-q-3-in-port">
      <rect x="509" y="769" width="2" height="2" rx="0" fill="none" stroke="none" stroke-width="1.5"/>

    </g>
    <g id="main-q-3-out-port">
      <rect x="829" y="769" width="2" height="2" rx="0" fill="none" stroke="none" stroke-width="1.5"/>

    </g>
    <g id="main-q-3-label">
      <rect x="578" y="665" width="184" height="104" rx="3" fill="none" stroke="none" stroke-width="1.5"/>
      <text x="670" y="737.4" font-family="Times New Roman, Times, serif" font-size="60" fill="#000000" text-anchor="middle"><tspan x="670"><tspan font-style="italic">Q</tspan><tspan baseline-shift="sub" font-size="42">3</tspan></tspan></text>
    </g>
    <g id="main-q-3-n1-1">
      <rect x="591" y="783" width="14" height="14" rx="7" fill="#ffffff" stroke="#333941" stroke-width="1.5"/>

    </g>
    <g id="main-q-3-n1-2">
      <rect x="591" y="800" width="14" height="14" rx="7" fill="#ffffff" stroke="#333941" stroke-width="1.5"/>

    </g>
    <g id="main-q-3-n1-3">
      <rect x="591" y="817" width="14" height="14" rx="7" fill="#ffffff" stroke="#333941" stroke-width="1.5"/>

    </g>
    <g id="main-q-3-n2-1">
      <rect x="663" y="774" width="14" height="14" rx="7" fill="#ffffff" stroke="#333941" stroke-width="1.5"/>

    </g>
    <g id="main-q-3-n2-2">
      <rect x="663" y="791" width="14" height="14" rx="7" fill="#ffffff" stroke="#333941" stroke-width="1.5"/>

    </g>
    <g id="main-q-3-n2-3">
      <rect x="663" y="808" width="14" height="14" rx="7" fill="#ffffff" stroke="#333941" stroke-width="1.5"/>

    </g>
    <g id="main-q-3-n2-4">
      <rect x="663" y="825" width="14" height="14" rx="7" fill="#ffffff" stroke="#333941" stroke-width="1.5"/>

    </g>
    <g id="main-q-3-n3-1">
      <rect x="735" y="783" width="14" height="14" rx="7" fill="#ffffff" stroke="#333941" stroke-width="1.5"/>

    </g>
    <g id="main-q-3-n3-2">
      <rect x="735" y="800" width="14" height="14" rx="7" fill="#ffffff" stroke="#333941" stroke-width="1.5"/>

    </g>
    <g id="main-q-3-n3-3">
      <rect x="735" y="817" width="14" height="14" rx="7" fill="#ffffff" stroke="#333941" stroke-width="1.5"/>

    </g>
    <g id="main-q-in">
      <rect x="479" y="539" width="2" height="2" rx="0" fill="none" stroke="none" stroke-width="1.5"/>

    </g>
    <g id="main-q-out">
      <rect x="859" y="539" width="2" height="2" rx="0" fill="none" stroke="none" stroke-width="1.5"/>

    </g>
    <g id="main-omega">
      <rect x="978" y="488" width="124" height="104" rx="3" fill="#ffffff" stroke="#2f5d80" stroke-width="2.5"/>
      <text x="1040" y="560.4" font-family="Times New Roman, Times, serif" font-size="60" fill="#000000" text-anchor="middle"><tspan x="1040">Ω</tspan></text>
    </g>
    <g id="main-argmax">
      <rect x="1146" y="452" width="278" height="176" rx="3" fill="#ffffff" stroke="#2f5d80" stroke-width="1.5"/>
      <text x="1285" y="524.4" font-family="Times New Roman, Times, serif" font-size="60" fill="#000000" text-anchor="middle"><tspan x="1285">Action</tspan><tspan x="1285" dy="72">selection</tspan></text>
    </g>
    <g id="main-environment-title">
      <rect x="1833" y="306" width="394" height="104" rx="3" fill="none" stroke="none" stroke-width="1.5"/>
      <text x="2030" y="378.4" font-family="Times New Roman, Times, serif" font-size="48" fill="#000000" text-anchor="middle"><tspan x="2030">Main environment</tspan></text>
    </g>
    <g id="main-satellite">
      <rect x="1950" y="400" width="160" height="120" rx="3" fill="none" stroke="none" stroke-width="1.5"/>
      <line x1="2010.2" y1="460" x2="2049.8" y2="460" stroke="#16233a" stroke-width="1"/>
      <rect x="1970.6" y="446.2" width="39.6" height="27.6" rx="1.5" fill="#9bb0cf" stroke="#16233a" stroke-width="1"/>
      <rect x="2049.8" y="446.2" width="39.6" height="27.6" rx="1.5" fill="#9bb0cf" stroke="#16233a" stroke-width="1"/>
      <rect x="2015.48" y="434.7" width="29.04" height="50.6" rx="1.5" fill="#566377" stroke="#16233a" stroke-width="1"/>

    </g>
    <g id="main-beam-1">
      <rect x="1940" y="605" width="34" height="34" rx="17" fill="#2f6fb0" stroke="#2b4c7e" stroke-width="1.5"/>

    </g>
    <g id="main-beam-2">
      <rect x="1989" y="605" width="34" height="34" rx="17" fill="#dde4ee" stroke="#2b4c7e" stroke-width="1.5"/>

    </g>
    <g id="main-beam-3">
      <rect x="2038" y="605" width="34" height="34" rx="17" fill="#2f6fb0" stroke="#2b4c7e" stroke-width="1.5"/>

    </g>
    <g id="main-beam-4">
      <rect x="2087" y="605" width="34" height="34" rx="17" fill="#dde4ee" stroke="#2b4c7e" stroke-width="1.5"/>

    </g>
    <g id="main-beam-5">
      <rect x="1940" y="645" width="34" height="34" rx="17" fill="#dde4ee" stroke="#2b4c7e" stroke-width="1.5"/>

    </g>
    <g id="main-beam-6">
      <rect x="1989" y="645" width="34" height="34" rx="17" fill="#2f6fb0" stroke="#2b4c7e" stroke-width="1.5"/>

    </g>
    <g id="main-beam-7">
      <rect x="2038" y="645" width="34" height="34" rx="17" fill="#dde4ee" stroke="#2b4c7e" stroke-width="1.5"/>

    </g>
    <g id="main-beam-8">
      <rect x="2087" y="645" width="34" height="34" rx="17" fill="#dde4ee" stroke="#2b4c7e" stroke-width="1.5"/>

    </g>
    <g id="main-env-in">
      <rect x="1839" y="539" width="2" height="2" rx="0" fill="none" stroke="none" stroke-width="1.5"/>

    </g>
    <g id="main-transition">
      <rect x="2029" y="749" width="2" height="2" rx="0" fill="none" stroke="none" stroke-width="1.5"/>

    </g>
    <g id="main-replay">
      <path d="M 46 644 L 46 816 A 171 34 0 0 0 388 816 L 388 644 A 171 34 0 0 1 46 644 Z" fill="#ffffff" stroke="#2f5d80" stroke-width="1.5" stroke-linejoin="round"/><ellipse cx="217" cy="644" rx="171" ry="34" fill="#ffffff" stroke="#2f5d80" stroke-width="1.5"/>
      <text x="217" y="736.4" font-family="Times New Roman, Times, serif" font-size="60" fill="#000000" text-anchor="middle"><tspan x="217">Main Replay</tspan><tspan x="217" dy="72">Buffer</tspan></text>
    </g>
    <g id="main-loss">
      <rect x="2268" y="642" width="264" height="176" rx="3" fill="#ffffff" stroke="#2f5d80" stroke-width="2.5"/>
      <text x="2400" y="714.4" font-family="Times New Roman, Times, serif" font-size="60" fill="#000000" text-anchor="middle"><tspan x="2400">Main TD</tspan><tspan x="2400" dy="72">update</tspan></text>
    </g>
    <g id="catfish-replay">
      <path d="M 40 1591 L 40 1763 A 225 34 0 0 0 490 1763 L 490 1591 A 225 34 0 0 1 40 1591 Z" fill="#ffffff" stroke="#8a5740" stroke-width="1.5" stroke-linejoin="round"/><ellipse cx="265" cy="1591" rx="225" ry="34" fill="#ffffff" stroke="#8a5740" stroke-width="1.5"/>
      <text x="265" y="1683.4" font-family="Times New Roman, Times, serif" font-size="60" fill="#000000" text-anchor="middle"><tspan x="265">Catfish Replay</tspan><tspan x="265" dy="72">Buffer</tspan></text>
    </g>
    <g id="catfish-q-panel-title">
      <rect x="674" y="1034" width="352" height="104" rx="3" fill="none" stroke="none" stroke-width="1.5"/>
      <text x="850" y="1106.4" font-family="Times New Roman, Times, serif" font-size="60" fill="#000000" text-anchor="middle"><tspan x="850">Q heads</tspan></text>
    </g>
    <g id="catfish-q-1">
      <rect x="597" y="1170" width="506" height="184" rx="3" fill="#ffffff" stroke="#8a5740" stroke-width="1.5"/>
      <text x="850" y="1246.4" font-family="Times New Roman, Times, serif" font-size="60" fill="#000000" text-anchor="middle"><tspan x="850"><tspan font-style="italic">Q</tspan><tspan baseline-shift="sub" font-size="42">1</tspan><tspan baseline-shift="super" font-size="42">CF</tspan></tspan><tspan x="850" dy="72">Energy efficiency</tspan></text>
    </g>
    <g id="catfish-q-2">
      <rect x="692" y="1395" width="316" height="184" rx="3" fill="#ffffff" stroke="#8a5740" stroke-width="1.5"/>
      <text x="850" y="1471.4" font-family="Times New Roman, Times, serif" font-size="60" fill="#000000" text-anchor="middle"><tspan x="850"><tspan font-style="italic">Q</tspan><tspan baseline-shift="sub" font-size="42">2</tspan><tspan baseline-shift="super" font-size="42">CF</tspan></tspan><tspan x="850" dy="72">Handover</tspan></text>
    </g>
    <g id="catfish-q-3">
      <rect x="649" y="1620" width="402" height="184" rx="3" fill="#ffffff" stroke="#8a5740" stroke-width="1.5"/>
      <text x="850" y="1696.4" font-family="Times New Roman, Times, serif" font-size="60" fill="#000000" text-anchor="middle"><tspan x="850"><tspan font-style="italic">Q</tspan><tspan baseline-shift="sub" font-size="42">3</tspan><tspan baseline-shift="super" font-size="42">CF</tspan></tspan><tspan x="850" dy="72">Load balance</tspan></text>
    </g>
    <g id="catfish-q-out">
      <rect x="1164" y="1486" width="2" height="2" rx="0" fill="none" stroke="none" stroke-width="1.5"/>

    </g>
    <g id="catfish-omega">
      <rect x="1198" y="1435" width="124" height="104" rx="3" fill="#ffffff" stroke="#8a5740" stroke-width="2.5"/>
      <text x="1260" y="1507.4" font-family="Times New Roman, Times, serif" font-size="60" fill="#000000" text-anchor="middle"><tspan x="1260">Ω</tspan></text>
    </g>
    <g id="catfish-policy">
      <rect x="1354" y="1399" width="231" height="176" rx="3" fill="#ffffff" stroke="#8a5740" stroke-width="1.5"/>
      <text x="1469.5" y="1471.4" font-family="Times New Roman, Times, serif" font-size="56" fill="#000000" text-anchor="middle"><tspan x="1469.5">Action</tspan><tspan x="1469.5" dy="67">selection</tspan></text>
    </g>
    <g id="catfish-environment-title">
      <rect x="1634" y="1190" width="462" height="176" rx="3" fill="none" stroke="none" stroke-width="1.5"/>
      <text x="1865" y="1262.4" font-family="Times New Roman, Times, serif" font-size="60" fill="#000000" text-anchor="middle"><tspan x="1865">Catfish</tspan><tspan x="1865" dy="72">environment</tspan></text>
    </g>
    <g id="catfish-satellite">
      <rect x="1785" y="1367" width="160" height="115" rx="3" fill="none" stroke="none" stroke-width="1.5"/>
      <line x1="1845.2" y1="1424.5" x2="1884.8" y2="1424.5" stroke="#16233a" stroke-width="1"/>
      <rect x="1805.6" y="1411.45" width="39.6" height="26.1" rx="1.5" fill="#9bb0cf" stroke="#16233a" stroke-width="1"/>
      <rect x="1884.8" y="1411.45" width="39.6" height="26.1" rx="1.5" fill="#9bb0cf" stroke="#16233a" stroke-width="1"/>
      <rect x="1850.48" y="1400.58" width="29.04" height="47.85" rx="1.5" fill="#566377" stroke="#16233a" stroke-width="1"/>

    </g>
    <g id="catfish-beam-1">
      <rect x="1776" y="1541" width="32" height="32" rx="16" fill="#dde4ee" stroke="#2b4c7e" stroke-width="1.5"/>

    </g>
    <g id="catfish-beam-2">
      <rect x="1825" y="1541" width="32" height="32" rx="16" fill="#2f6fb0" stroke="#2b4c7e" stroke-width="1.5"/>

    </g>
    <g id="catfish-beam-3">
      <rect x="1874" y="1541" width="32" height="32" rx="16" fill="#dde4ee" stroke="#2b4c7e" stroke-width="1.5"/>

    </g>
    <g id="catfish-beam-4">
      <rect x="1923" y="1541" width="32" height="32" rx="16" fill="#2f6fb0" stroke="#2b4c7e" stroke-width="1.5"/>

    </g>
    <g id="catfish-beam-5">
      <rect x="1776" y="1575" width="32" height="32" rx="16" fill="#2f6fb0" stroke="#2b4c7e" stroke-width="1.5"/>

    </g>
    <g id="catfish-beam-6">
      <rect x="1825" y="1575" width="32" height="32" rx="16" fill="#dde4ee" stroke="#2b4c7e" stroke-width="1.5"/>

    </g>
    <g id="catfish-beam-7">
      <rect x="1874" y="1575" width="32" height="32" rx="16" fill="#dde4ee" stroke="#2b4c7e" stroke-width="1.5"/>

    </g>
    <g id="catfish-beam-8">
      <rect x="1923" y="1575" width="32" height="32" rx="16" fill="#dde4ee" stroke="#2b4c7e" stroke-width="1.5"/>

    </g>
    <g id="catfish-env-in">
      <rect x="1629" y="1486" width="2" height="2" rx="0" fill="none" stroke="none" stroke-width="1.5"/>

    </g>
    <g id="catfish-transition">
      <rect x="1864" y="1701" width="2" height="2" rx="0" fill="none" stroke="none" stroke-width="1.5"/>

    </g>
    <g id="catfish-r1">
      <rect x="2192" y="1080" width="228" height="104" rx="3" fill="#ffffff" stroke="#8a5740" stroke-width="2.5"/>
      <text x="2306" y="1152.4" font-family="Times New Roman, Times, serif" font-size="60" fill="#000000" text-anchor="middle"><tspan x="2306"><tspan font-style="italic">r</tspan><tspan baseline-shift="sub" font-size="42">1</tspan><tspan font-style="italic" baseline-shift="super" font-size="42">C</tspan></tspan></text>
    </g>
    <g id="catfish-loss">
      <rect x="2132" y="1242" width="348" height="176" rx="3" fill="#ffffff" stroke="#8a5740" stroke-width="1.5"/>
      <text x="2306" y="1314.4" font-family="Times New Roman, Times, serif" font-size="60" fill="#000000" text-anchor="middle"><tspan x="2306">Catfish TD</tspan><tspan x="2306" dy="72">update</tspan></text>
    </g>
    <g id="experience-shaping-title">
      <rect x="184" y="1994" width="552" height="104" rx="3" fill="none" stroke="none" stroke-width="1.5"/>
      <text x="460" y="2066.4" font-family="Times New Roman, Times, serif" font-size="60" fill="#000000" text-anchor="middle"><tspan x="460">Experience shaping</tspan></text>
    </g>
    <g id="reward-shaping-title">
      <rect x="1066" y="1994" width="468" height="104" rx="3" fill="none" stroke="none" stroke-width="1.5"/>
      <text x="1300" y="2066.4" font-family="Times New Roman, Times, serif" font-size="60" fill="#000000" text-anchor="middle"><tspan x="1300">Reward shaping</tspan></text>
    </g>
    <g id="penalty-shaping-title">
      <rect x="1909" y="1994" width="462" height="104" rx="3" fill="none" stroke="none" stroke-width="1.5"/>
      <text x="2140" y="2066.4" font-family="Times New Roman, Times, serif" font-size="60" fill="#000000" text-anchor="middle"><tspan x="2140">Penalty shaping</tspan></text>
    </g>
    <g id="experience-cell-1">
      <rect x="165" y="2170" width="50" height="52" rx="0" fill="#ffffff" stroke="#2f5d80" stroke-width="1.5"/>

    </g>
    <g id="experience-cell-2">
      <rect x="225" y="2170" width="50" height="52" rx="0" fill="#ffffff" stroke="#2f5d80" stroke-width="1.5"/>

    </g>
    <g id="experience-cell-3">
      <rect x="285" y="2170" width="50" height="52" rx="0" fill="#ffffff" stroke="#2f5d80" stroke-width="1.5"/>

    </g>
    <g id="experience-cell-4">
      <rect x="345" y="2170" width="50" height="52" rx="0" fill="#ffffff" stroke="#2f5d80" stroke-width="1.5"/>

    </g>
    <g id="experience-cell-5">
      <rect x="405" y="2170" width="50" height="52" rx="0" fill="#ffffff" stroke="#2f5d80" stroke-width="1.5"/>

    </g>
    <g id="experience-cell-6">
      <rect x="465" y="2170" width="50" height="52" rx="0" fill="#ffffff" stroke="#2f5d80" stroke-width="1.5"/>

    </g>
    <g id="experience-cell-7">
      <rect x="525" y="2170" width="50" height="52" rx="0" fill="#ffffff" stroke="#2f5d80" stroke-width="1.5"/>

    </g>
    <g id="experience-cell-8">
      <rect x="585" y="2170" width="50" height="52" rx="0" fill="#f3efe6" stroke="#8a5740" stroke-width="1.5"/>

    </g>
    <g id="experience-cell-9">
      <rect x="645" y="2170" width="50" height="52" rx="0" fill="#f3efe6" stroke="#8a5740" stroke-width="1.5"/>

    </g>
    <g id="experience-cell-10">
      <rect x="705" y="2170" width="50" height="52" rx="0" fill="#f3efe6" stroke="#8a5740" stroke-width="1.5"/>

    </g>
    <g id="experience-replay-fork">
      <rect x="264" y="1904" width="2" height="2" rx="0" fill="none" stroke="none" stroke-width="1.5"/>

    </g>
    <g id="experience-in">
      <rect x="839" y="2139" width="2" height="2" rx="0" fill="none" stroke="none" stroke-width="1.5"/>

    </g>
    <g id="reward-main-bar">
      <rect x="1160" y="2158" width="42" height="82" rx="0" fill="#ffffff" stroke="#2f5d80" stroke-width="1.5"/>

    </g>
    <g id="reward-catfish-bar">
      <rect x="1300" y="2104" width="42" height="136" rx="0" fill="#f3efe6" stroke="#8a5740" stroke-width="1.5"/>

    </g>
    <g id="reward-out">
      <rect x="1629" y="2009" width="2" height="2" rx="0" fill="none" stroke="none" stroke-width="1.5"/>

    </g>
    <g id="penalty-bar-1">
      <rect x="1930" y="2098" width="52" height="142" rx="0" fill="#ffffff" stroke="#2f5d80" stroke-width="1.5"/>

    </g>
    <g id="penalty-bar-2">
      <rect x="2012" y="2122" width="52" height="118" rx="0" fill="#ffffff" stroke="#2f5d80" stroke-width="1.5"/>

    </g>
    <g id="penalty-bar-3">
      <rect x="2094" y="2148" width="52" height="92" rx="0" fill="#ffffff" stroke="#2f5d80" stroke-width="1.5"/>

    </g>
    <g id="penalty-bar-4">
      <rect x="2176" y="2182" width="52" height="58" rx="0" fill="#f3efe6" stroke="#8a5740" stroke-width="1.5"/>

    </g>
    <g id="penalty-bar-5">
      <rect x="2258" y="2206" width="52" height="34" rx="0" fill="#f3efe6" stroke="#8a5740" stroke-width="1.5"/>

    </g>
    <g id="penalty-cut-label">
      <rect x="2318" y="2105" width="244" height="104" rx="3" fill="none" stroke="none" stroke-width="1.5"/>
      <text x="2440" y="2177.4" font-family="Times New Roman, Times, serif" font-size="60" fill="#8a5740" text-anchor="middle"><tspan x="2440"><tspan font-style="italic">v</tspan><tspan baseline-shift="sub" font-size="42">max</tspan></tspan></text>
    </g>
    <g id="penalty-out">
      <rect x="2449" y="2009" width="2" height="2" rx="0" fill="none" stroke="none" stroke-width="1.5"/>

    </g>
  </g>
  <g id="layer-annotations">
    <g id="experience-main-samples-label">
      <text x="370" y="2256" font-family="Times New Roman, Times, serif" font-size="26" fill="#2f5d80" text-anchor="middle"><tspan x="370">Main samples</tspan></text>
    </g>
    <g id="experience-catfish-samples-label">
      <text x="670" y="2256" font-family="Times New Roman, Times, serif" font-size="26" fill="#8a5740" text-anchor="middle"><tspan x="670">Catfish samples</tspan></text>
    </g>
    <g id="reward-gap-label">
      <text x="1485" y="2148" font-family="Times New Roman, Times, serif" font-size="60" fill="#8a5740" text-anchor="start"><tspan x="1485"><tspan font-style="italic">r</tspan><tspan baseline-shift="sub" font-size="42">1</tspan><tspan font-style="italic" baseline-shift="super" font-size="42">S</tspan></tspan></text>
    </g>
    <g id="reward-main-label">
      <text x="1080" y="2206" font-family="Times New Roman, Times, serif" font-size="48" fill="#2f5d80" text-anchor="start"><tspan x="1080"><tspan font-style="italic">r</tspan><tspan baseline-shift="sub" font-size="34">1</tspan><tspan font-style="italic" baseline-shift="super" font-size="34">M</tspan></tspan></text>
    </g>
    <g id="reward-catfish-label">
      <text x="1370" y="2206" font-family="Times New Roman, Times, serif" font-size="48" fill="#8a5740" text-anchor="start"><tspan x="1370"><tspan font-style="italic">r</tspan><tspan baseline-shift="sub" font-size="34">1</tspan><tspan font-style="italic" baseline-shift="super" font-size="34">CF</tspan></tspan></text>
    </g>
    <g id="reward-unchanged-label">
      <text x="1490" y="2258" font-family="Times New Roman, Times, serif" font-size="26" fill="#333941" text-anchor="middle"><tspan x="1490"><tspan font-style="italic">r</tspan><tspan baseline-shift="sub" font-size="18">2</tspan>, <tspan font-style="italic">r</tspan><tspan baseline-shift="sub" font-size="18">3</tspan> unchanged</tspan></text>
    </g>
    <g id="penalty-loss-label">
      <text x="2165" y="1992" font-family="Times New Roman, Times, serif" font-size="32" fill="#8a5740" text-anchor="middle"><tspan x="2165"><tspan font-style="italic">L</tspan><tspan baseline-shift="sub" font-size="22">cap</tspan></tspan></text>
    </g>
  </g>
</svg>
